<svg width="20" height="20" fill="none" xmlns="http://www.w3.org/2000/svg"><path d="M13.43 13.067l-.515.773c-.103.154-.239.286-.418.334-.588.155-2.147.225-4.521-2.15C5.6 9.65 5.67 8.09 5.825 7.503c.048-.18.18-.315.334-.418l.773-.516a1.253 1.253 0 00.348-1.737l-1.46-2.19a1.253 1.253 0 00-1.537-.457l-.659.282c-.5.215-.908.6-1.152 1.086-.203.407-.36.836-.382 1.29-.068 1.432.246 4.96 4.176 8.89 3.93 3.93 7.458 4.244 8.89 4.176.454-.021.883-.179 1.29-.382a2.302 2.302 0 001.086-1.152l.282-.66c.238-.554.046-1.2-.456-1.535l-2.191-1.46a1.253 1.253 0 00-1.737.347z" fill="#898989"/></svg>